<?xml version="1.0" standalone="no"?>
<!DOCTYPE svg PUBLIC "-//W3C//DTD SVG 20010904//EN"
 "http://www.w3.org/TR/2001/REC-SVG-20010904/DTD/svg10.dtd">
<svg version="1.0" xmlns="http://www.w3.org/2000/svg"
 width="1563.000000pt" height="1563.000000pt" viewBox="0 0 1563.000000 1563.000000"
 preserveAspectRatio="xMidYMid meet">
<metadata>
Created by potrace 1.14, written by Peter Selinger 2001-2017
</metadata>
<g transform="translate(0.000000,1563.000000) scale(0.100000,-0.100000)"
fill="#000000" stroke="none">
<path d="M0 7815 l0 -7815 7815 0 7815 0 0 7815 0 7815 -7815 0 -7815 0 0
-7815z m8591 7051 c298 -25 571 -64 859 -122 253 -50 317 -69 366 -109 62 -51
148 -91 474 -220 409 -162 530 -229 564 -310 19 -44 72 -74 254 -145 231 -90
296 -130 308 -195 7 -39 38 -61 193 -141 52 -26 115 -67 139 -90 43 -42 44
-44 37 -89 -6 -45 -5 -48 33 -84 21 -20 88 -67 148 -103 l109 -65 79 -156 c78
-151 80 -157 78 -221 -1 -59 2 -73 38 -141 22 -42 40 -82 40 -90 0 -8 24 -67
54 -132 97 -213 97 -211 107 -598 5 -187 7 -365 3 -395 -5 -54 -4 -58 51 -145
117 -186 174 -333 219 -561 38 -195 143 -835 156 -951 8 -65 10 -190 7 -335
-5 -264 -1 -244 -117 -635 -38 -131 -76 -271 -85 -311 -17 -84 -20 -204 -5
-233 17 -31 61 -24 100 16 38 39 47 42 52 20 5 -25 82 37 117 95 17 28 38 50
46 50 12 0 13 -4 6 -19 -6 -10 -14 -45 -17 -76 -10 -79 6 -71 80 40 54 82 60
87 72 70 17 -22 18 -105 3 -158 -26 -95 -217 -235 -386 -282 -35 -10 -63 -21
-63 -25 0 -27 46 -129 83 -186 59 -89 253 -332 326 -409 32 -33 107 -116 167
-185 156 -178 352 -389 539 -580 175 -179 233 -247 271 -322 49 -96 49 -250
-1 -348 -60 -119 -193 -203 -465 -297 -131 -45 -220 -117 -277 -224 -25 -48
-28 -64 -28 -149 0 -88 3 -101 33 -162 23 -46 63 -100 132 -173 55 -58 100
-107 100 -109 0 -2 4 -26 10 -54 18 -99 -33 -214 -132 -294 -24 -19 -95 -69
-159 -111 -138 -91 -205 -148 -195 -165 4 -7 14 -12 22 -12 21 0 114 -55 162
-95 31 -27 46 -50 57 -88 22 -73 31 -244 16 -289 -30 -92 -153 -239 -234 -279
-62 -32 -167 -146 -213 -230 l-39 -74 1 -115 c0 -63 10 -182 22 -265 31 -207
31 -297 3 -420 -37 -165 -121 -296 -260 -405 -113 -90 -220 -131 -393 -150
-203 -23 -434 5 -1078 130 -697 136 -868 161 -1075 162 -251 1 -381 -46 -521
-186 -85 -86 -148 -182 -207 -321 -19 -44 -66 -150 -104 -235 -39 -85 -88
-202 -111 -260 -22 -58 -79 -202 -125 -320 -47 -118 -99 -261 -117 -316 l-33
-102 -51 -6 c-49 -5 -369 -31 -488 -39 l-58 -4 -14 46 c-9 29 -16 113 -20 226
-14 435 -103 899 -311 1615 -34 118 -58 221 -65 285 -16 150 -40 462 -40 530
l0 60 48 31 c149 98 277 132 602 159 336 29 480 59 615 128 170 88 308 264
425 541 63 149 188 528 206 625 28 146 7 320 -48 401 -37 53 -86 86 -208 140
-111 48 -452 226 -575 298 -184 109 -410 324 -530 504 -155 231 -340 327 -705
363 -227 23 -405 62 -502 111 -62 32 -156 111 -192 162 -44 65 -102 337 -151
712 -30 231 -74 420 -118 510 -30 61 -34 65 -69 68 -49 4 -87 -17 -155 -86
-161 -163 -321 -443 -454 -792 -34 -91 -103 -268 -152 -395 -209 -536 -321
-952 -373 -1380 -10 -86 -18 -295 -24 -615 -11 -555 -21 -698 -70 -966 -42
-226 -130 -521 -188 -627 -31 -58 -119 -141 -201 -191 -50 -31 -92 -44 -258
-81 -109 -24 -241 -49 -293 -56 -52 -6 -100 -17 -105 -24 -6 -7 -46 -14 -100
-17 -53 -3 -143 -18 -219 -37 -70 -18 -130 -31 -132 -29 -1 2 14 66 35 143 90
327 123 592 126 1010 2 178 8 351 15 390 6 39 15 207 20 375 13 435 42 722
115 1124 70 382 55 698 -39 821 -14 18 -70 64 -123 101 -297 206 -476 370
-634 579 -371 492 -562 1097 -620 1965 -20 303 9 1799 34 1695 11 -51 44 -308
72 -560 82 -766 112 -1000 161 -1270 85 -462 194 -809 356 -1128 251 -496 683
-928 1087 -1089 218 -86 457 -106 654 -55 120 32 261 98 346 162 179 136 297
375 332 676 23 201 0 539 -57 824 -53 271 -199 803 -379 1385 -212 687 -237
769 -306 1010 -65 228 -149 549 -149 567 1 16 496 -1128 645 -1487 313 -757
444 -1112 521 -1410 25 -96 46 -176 48 -177 2 -2 77 -8 167 -13 90 -6 234 -15
319 -20 199 -13 661 -13 855 0 559 37 936 117 1230 260 355 173 454 343 560
964 l36 211 84 175 c97 203 117 261 117 333 -1 67 -12 76 -149 115 -59 17
-146 47 -193 66 -167 69 -289 97 -723 170 -571 96 -816 190 -1031 395 -136
130 -224 266 -393 606 -110 221 -158 305 -228 395 -102 133 -245 246 -390 308
-106 45 -389 135 -585 186 -315 81 -585 123 -879 135 -386 17 -667 -28 -957
-154 -251 -108 -452 -251 -690 -489 -250 -251 -356 -383 -795 -996 -378 -527
-533 -739 -540 -740 -13 0 -24 277 -24 580 1 328 13 474 61 725 131 681 452
1316 921 1818 333 356 768 670 1178 850 44 19 161 71 260 115 540 239 1104
417 1723 541 417 84 731 116 1272 131 201 6 372 13 380 15 33 9 666 -5 831
-19z"/>
</g>
</svg>
